<?xml version="1.0" encoding="UTF-8"?>
<svg id="Layer_1" xmlns="http://www.w3.org/2000/svg" version="1.1" viewBox="0 0 1275 260">
  <!-- Generator: Adobe Illustrator 30.0.0, SVG Export Plug-In . SVG Version: 2.1.1 Build 123)  -->
  <path d="M.6,82.9L143.8.2c.8-.5,1.9.1,1.9,1.1v17.9c0,.9-.5,1.7-1.2,2.1l-106.6,61.6c-.8.5-.8,1.7,0,2.1l15.5,9c.8.4,1.7.4,2.5,0l88-50.8c.8-.5,1.9.1,1.9,1.1v17.9c0,.9-.5,1.7-1.2,2.1l-69.4,40.1c-.8.5-.8,1.7,0,2.1l69.4,40.1c.8.4,1.2,1.3,1.2,2.1v17.9c0,1-1,1.6-1.9,1.1L.6,85c-.8-.5-.8-1.7,0-2.1ZM309.4,169.4l-16.1-9.3c-.4-.2-.9-.2-1.2,0l-135.3,78.1c-.8.4-1.7.4-2.5,0L18,159.5c-.4-.2-.9-.2-1.2,0L.6,168.8c-.8.5-.8,1.7,0,2.1l153.6,88.7c.8.4,1.7.4,2.5,0l152.7-88.2c.8-.5.8-1.7,0-2.1ZM309.4,126.4l-16.1-9.3c-.4-.2-.9-.2-1.2,0l-135.3,78.1c-.8.4-1.7.4-2.5,0L18,116.5c-.4-.2-.9-.2-1.2,0L.6,125.8c-.8.5-.8,1.7,0,2.1l153.6,88.7c.8.4,1.7.4,2.5,0l152.7-88.2c.8-.5.8-1.7,0-2.1ZM112.2,106.5l15.5,9c.8.4,1.7.4,2.5,0l23.1-13.3c.8-.4,1.7-.4,2.5,0l24.1,13.9c.8.4,1.7.4,2.5,0l15.5-9c.8-.5.8-1.7,0-2.1l-42-24.3c-.8-.4-1.7-.4-2.5,0l-41.1,23.7c-.8.5-.8,1.7,0,2.1ZM309.4,83.4L166.2.7c-.8-.5-1.9.1-1.9,1.1v61.6c0,.4.2.9.6,1.1l70.1,40.5c.8.5.8,1.7,0,2.1l-69.4,40.1c-.8.4-1.2,1.3-1.2,2.1v17.9c0,1,1,1.6,1.9,1.1l106-61.2c.8-.5.8-1.7,0-2.1l-88-50.8c-.8-.4-1.2-1.3-1.2-2.1v-17.9c0-1,1-1.6,1.9-1.1l107.3,61.9c.4.2.9.2,1.2,0l16.1-9.3c.8-.5.8-1.7,0-2.1ZM395.3,58.5h90.9v17.7h-72.2v46.8h68.5v17.3h-68.5v61.3h-18.7V58.5ZM504.7,201.5h18.3V58.5h-18.3v143.1ZM607.9,158c0,9.4-2.4,16.8-7.1,22.2-4.7,5.4-11.2,8.1-19.3,8.1s-12.9-2.4-16.5-7.3c-3.6-4.8-5.4-12.3-5.4-22.4v-64.1h-18.1v68.9c0,12.6,3.2,22.5,9.5,29.7,6.3,7.2,14.8,10.8,25.6,10.8s16.9-2.4,23-7.3c4.1-3.3,7.2-7.5,9.5-12.7v17.5h17.3v-107h-18.3v63.5ZM646.9,78.2h19.1v-20.2h-19.1v20.2ZM647.5,201.5h18.1v-107h-18.1v107ZM759.5,58.5h18.1v143.1h-16.5l-.6-16.1c-3,5.8-7.5,10.3-13.5,13.6-6,3.3-12.8,4.9-20.4,4.9s-17.3-2.3-24.1-6.9c-6.8-4.6-12-11-15.6-19.3-3.6-8.3-5.4-18.2-5.4-29.6s1.8-21.3,5.4-29.7c3.6-8.4,8.8-14.9,15.6-19.4,6.8-4.6,14.8-6.9,24.1-6.9s13.6,1.5,19.5,4.6c5.9,3.1,10.3,7.4,13.3,12.9v-51.2ZM759.5,148.1c0-8.3-1.1-15.4-3.3-21.2-2.2-5.8-5.5-10.2-9.8-13.3-4.3-3.1-9.5-4.6-15.7-4.6-9.1,0-16.4,3.5-21.9,10.4-5.4,6.9-8.2,16.5-8.2,28.7s2.7,21.4,8.2,28.4c5.4,7,12.7,10.5,21.9,10.5s11.4-1.5,15.7-4.6c4.3-3.1,7.6-7.6,9.8-13.5,2.2-5.9,3.3-12.8,3.3-20.8ZM865.2,148.3c-6.1-2.7-14.7-5-25.7-6.9-6.2-1.1-11.1-2.3-14.8-3.6-3.7-1.3-6.3-3.1-8-5.2-1.6-2.1-2.4-5-2.4-8.5s1.8-8.1,5.3-11c3.6-2.9,9-4.3,16.4-4.3s8.8.8,12.2,2.5c3.4,1.7,6.2,3.9,8.3,6.8,2.1,2.8,3.5,6.1,4.3,9.9l18.9-1.2c-1.1-6.3-3.3-12.1-6.8-17.3-3.4-5.2-8.2-9.4-14.3-12.6-6.1-3.2-13.6-4.7-22.5-4.7-13.2,0-23.3,3.1-30.4,9.3-7.1,6.2-10.7,14-10.7,23.6s1.3,10.7,3.8,14.8c2.6,4.1,6.8,7.5,12.7,10.3,5.9,2.8,14,5.1,24.2,7,7.5,1.3,13.2,2.7,17,4,3.8,1.3,6.4,3,7.8,4.8,1.3,1.9,2,4.2,2,6.9,0,5.1-2.1,8.8-6.3,11.1-4.2,2.3-9.9,3.4-17,3.4s-15.3-1.8-19.5-5.5c-4.3-3.7-7-8.7-8.1-15l-19.1,1.2c.5,7,2.7,13.2,6.4,18.6,3.8,5.4,9,9.7,15.7,12.8,6.7,3.1,14.9,4.6,24.6,4.6s15.4-1.2,21.8-3.6c6.3-2.4,11.3-6,15-10.7,3.7-4.7,5.5-10.3,5.5-16.9s-1.2-10.4-3.6-14.4c-2.4-4-6.7-7.3-12.8-10ZM922.7,69.5h-18.3v25h-15.7v15.7h15.7v63.3c0,9.7,2.3,16.8,7.1,21.3,4.7,4.5,12,6.8,21.8,6.8h17.9v-15.7h-15.3c-4.4,0-7.7-.9-9.9-2.8-2.2-1.9-3.2-5.2-3.2-10.1v-62.7h28.4v-15.7h-28.4v-25ZM1058.7,186h4v15.5c-.5.1-1.5.2-2.8.3-1.3,0-2.7.1-4,.1-4.8,0-8.8-.7-11.9-2.2-3.1-1.5-5.3-3.9-6.8-7.3-.9-2.1-1.5-4.6-1.8-7.6-1.2,2.6-2.9,5-5.1,7.3-3.6,3.7-8.1,6.6-13.5,8.7-5.4,2.1-11.2,3.1-17.3,3.1-11,0-19.8-2.6-26.4-7.7-6.6-5.1-9.9-12.2-9.9-21.4s2.7-16.3,8.2-21.6c5.4-5.2,14-9,25.7-11.3l37.7-7.1c0-8.7-2.1-15.3-6.2-19.7-4.2-4.4-10.3-6.6-18.5-6.6s-13,1.6-17.1,4.8c-4.2,3.2-7.1,7.9-8.7,13.9l-19.1-1.2c2-10.3,7-18.6,14.8-24.9,7.9-6.2,17.9-9.4,30.1-9.4s24.6,3.9,31.9,11.6c7.3,7.7,11,18.4,11,32.1v43.5c0,2.4.5,4.1,1.4,5.1.9,1,2.4,1.5,4.4,1.5ZM1034.8,150.4l-33.7,6.2c-7.1,1.3-12,3.4-14.7,6-2.7,2.7-4,6.2-4,10.5s1.7,8.6,5.1,11.3c3.4,2.7,8.2,4,14.2,4s12.8-1.3,17.7-4c5-2.7,8.8-6.3,11.4-11,2.6-4.6,3.9-9.9,3.9-15.8v-7.3ZM1120.2,109c7.1,0,13.1,1.9,17.9,5.6,4.8,3.8,7.9,9.2,9.1,16.3l19.1-1.2c-1.2-8.1-3.9-14.9-8-20.5-4.1-5.6-9.4-9.8-15.9-12.8-6.5-3-13.9-4.4-22.3-4.4s-18.8,2.4-26.2,7.1c-7.4,4.7-13.1,11.2-17.2,19.5-4.1,8.3-6.1,18.1-6.1,29.4s2,21.1,6.1,29.5c4.1,8.4,9.8,14.9,17.2,19.4,7.4,4.6,16.1,6.9,26.2,6.9s15.8-1.6,22.3-4.8c6.5-3.2,11.8-7.8,15.9-13.7,4.1-5.9,6.8-12.9,8-21l-19.1-1.2c-1.1,7.9-4.1,13.9-9,17.8-4.9,4-10.9,5.9-18,5.9s-17-3.5-22.4-10.4c-5.4-6.9-8.1-16.4-8.1-28.5s2.7-21.8,8.1-28.7c5.4-6.9,12.8-10.4,22.4-10.4ZM1231.1,139.9l42.1-45.3h-24l-50.8,56.2V58.5h-18.1v143.1h18.1v-28l20.4-21.6,34.5,49.6h21.8l-43.9-61.7Z"/>
</svg>