<?xml version="1.0" encoding="UTF-8"?>
<svg id="Layer_1" xmlns="http://www.w3.org/2000/svg" version="1.1" viewBox="0 0 310 260">
  <!-- Generator: Adobe Illustrator 30.0.0, SVG Export Plug-In . SVG Version: 2.1.1 Build 123)  -->
  <defs>
    <style>
      .st0 {
        fill: #fff;
      }
    </style>
  </defs>
  <path class="st0" d="M.6,82.9L143.8.2c.8-.5,1.9.1,1.9,1.1v17.9c0,.9-.5,1.7-1.2,2.1l-106.6,61.6c-.8.5-.8,1.7,0,2.1l15.5,9c.8.4,1.7.4,2.5,0l88-50.8c.8-.5,1.9.1,1.9,1.1v17.9c0,.9-.5,1.7-1.2,2.1l-69.4,40.1c-.8.5-.8,1.7,0,2.1l69.4,40.1c.8.4,1.2,1.3,1.2,2.1v17.9c0,1-1,1.6-1.9,1.1L.6,85c-.8-.5-.8-1.7,0-2.1ZM309.4,169.4l-16.1-9.3c-.4-.2-.9-.2-1.2,0l-135.3,78.1c-.8.4-1.7.4-2.5,0L18,159.5c-.4-.2-.9-.2-1.2,0L.6,168.8c-.8.5-.8,1.7,0,2.1l153.6,88.7c.8.4,1.7.4,2.5,0l152.7-88.2c.8-.5.8-1.7,0-2.1ZM309.4,126.4l-16.1-9.3c-.4-.2-.9-.2-1.2,0l-135.3,78.1c-.8.4-1.7.4-2.5,0L18,116.5c-.4-.2-.9-.2-1.2,0L.6,125.8c-.8.5-.8,1.7,0,2.1l153.6,88.7c.8.4,1.7.4,2.5,0l152.7-88.2c.8-.5.8-1.7,0-2.1ZM112.2,106.5l15.5,9c.8.4,1.7.4,2.5,0l23.1-13.3c.8-.4,1.7-.4,2.5,0l24.1,13.9c.8.4,1.7.4,2.5,0l15.5-9c.8-.5.8-1.7,0-2.1l-42-24.3c-.8-.4-1.7-.4-2.5,0l-41.1,23.7c-.8.5-.8,1.7,0,2.1ZM309.4,83.4L166.2.7c-.8-.5-1.9.1-1.9,1.1v61.6c0,.4.2.9.6,1.1l70.1,40.5c.8.5.8,1.7,0,2.1l-69.4,40.1c-.8.4-1.2,1.3-1.2,2.1v17.9c0,1,1,1.6,1.9,1.1l106-61.2c.8-.5.8-1.7,0-2.1l-88-50.8c-.8-.4-1.2-1.3-1.2-2.1v-17.9c0-1,1-1.6,1.9-1.1l107.3,61.9c.4.2.9.2,1.2,0l16.1-9.3c.8-.5.8-1.7,0-2.1Z"/>
</svg>